<mxfile host="Electron" agent="Mozilla/5.0 (Windows NT 10.0; Win64; x64) AppleWebKit/537.36 (KHTML, like Gecko) draw.io/24.7.17 Chrome/128.0.6613.36 Electron/32.0.1 Safari/537.36" version="24.7.17">
  <diagram id="R2lEEEUBdFMjLlhIrx00" name="Page-1">
    <mxGraphModel dx="837" dy="2093" grid="1" gridSize="10" guides="1" tooltips="1" connect="1" arrows="1" fold="1" page="1" pageScale="1" pageWidth="850" pageHeight="1100" math="0" shadow="0" extFonts="Permanent Marker^https://fonts.googleapis.com/css?family=Permanent+Marker">
      <root>
        <mxCell id="0" />
        <mxCell id="1" parent="0" />
        <mxCell id="5cIpfjfdvuiY5bLcLQ52-217" value="Doctor" style="whiteSpace=wrap;html=1;align=center;" parent="1" vertex="1">
          <mxGeometry x="1004.06" y="-663.1000000000001" width="100" height="40" as="geometry" />
        </mxCell>
        <mxCell id="5cIpfjfdvuiY5bLcLQ52-218" value="Client" style="whiteSpace=wrap;html=1;align=center;" parent="1" vertex="1">
          <mxGeometry x="962.8199999999998" y="-386.0599999999999" width="100" height="40" as="geometry" />
        </mxCell>
        <mxCell id="5cIpfjfdvuiY5bLcLQ52-219" value="Assis&lt;span style=&quot;background-color: initial;&quot;&gt;tant&lt;/span&gt;" style="whiteSpace=wrap;html=1;align=center;" parent="1" vertex="1">
          <mxGeometry x="1482.5" y="-736.39" width="100" height="40" as="geometry" />
        </mxCell>
        <mxCell id="5cIpfjfdvuiY5bLcLQ52-221" value="specialization" style="ellipse;whiteSpace=wrap;html=1;align=center;" parent="1" vertex="1">
          <mxGeometry x="1112.62" y="-674.85" width="76.61" height="21.75" as="geometry" />
        </mxCell>
        <mxCell id="5cIpfjfdvuiY5bLcLQ52-222" value="" style="endArrow=none;html=1;rounded=0;exitX=0.5;exitY=0;exitDx=0;exitDy=0;entryX=0.25;entryY=1;entryDx=0;entryDy=0;" parent="1" source="5cIpfjfdvuiY5bLcLQ52-416" target="5cIpfjfdvuiY5bLcLQ52-217" edge="1">
          <mxGeometry relative="1" as="geometry">
            <mxPoint x="920.02" y="-538.54" as="sourcePoint" />
            <mxPoint x="875.02" y="-568.5400000000001" as="targetPoint" />
          </mxGeometry>
        </mxCell>
        <mxCell id="5cIpfjfdvuiY5bLcLQ52-223" value="biog_description" style="ellipse;whiteSpace=wrap;html=1;align=center;" parent="1" vertex="1">
          <mxGeometry x="1108.44" y="-633.1" width="101.61" height="20.18" as="geometry" />
        </mxCell>
        <mxCell id="5cIpfjfdvuiY5bLcLQ52-224" value="" style="endArrow=none;html=1;rounded=0;exitX=0;exitY=0;exitDx=0;exitDy=0;entryX=1;entryY=0.75;entryDx=0;entryDy=0;" parent="1" source="5cIpfjfdvuiY5bLcLQ52-223" target="5cIpfjfdvuiY5bLcLQ52-217" edge="1">
          <mxGeometry relative="1" as="geometry">
            <mxPoint x="890.02" y="-568.5400000000001" as="sourcePoint" />
            <mxPoint x="845.02" y="-598.5400000000001" as="targetPoint" />
          </mxGeometry>
        </mxCell>
        <mxCell id="5cIpfjfdvuiY5bLcLQ52-225" value="" style="endArrow=none;html=1;rounded=0;exitX=0;exitY=1;exitDx=0;exitDy=0;entryX=0.75;entryY=0;entryDx=0;entryDy=0;" parent="1" source="5cIpfjfdvuiY5bLcLQ52-410" target="5cIpfjfdvuiY5bLcLQ52-218" edge="1">
          <mxGeometry relative="1" as="geometry">
            <mxPoint x="1642.8622150886304" y="-92.56126038083319" as="sourcePoint" />
            <mxPoint x="1587.1899999999996" y="-101.33999999999993" as="targetPoint" />
          </mxGeometry>
        </mxCell>
        <mxCell id="5cIpfjfdvuiY5bLcLQ52-226" value="owner" style="ellipse;whiteSpace=wrap;html=1;align=center;fontStyle=4" parent="1" vertex="1">
          <mxGeometry x="1266.4099999999999" y="-400.27" width="49.95" height="20" as="geometry" />
        </mxCell>
        <mxCell id="5cIpfjfdvuiY5bLcLQ52-227" value="" style="endArrow=none;html=1;rounded=0;exitX=0;exitY=1;exitDx=0;exitDy=0;entryX=0.75;entryY=0;entryDx=0;entryDy=0;" parent="1" source="5cIpfjfdvuiY5bLcLQ52-226" target="j37J7HoHjIznkent-nm3-9" edge="1">
          <mxGeometry relative="1" as="geometry">
            <mxPoint x="1220.12" y="-309.70999999999987" as="sourcePoint" />
            <mxPoint x="1255.0750000000003" y="-353.9699999999999" as="targetPoint" />
          </mxGeometry>
        </mxCell>
        <mxCell id="5cIpfjfdvuiY5bLcLQ52-228" value="birthdate" style="ellipse;whiteSpace=wrap;html=1;align=center;" parent="1" vertex="1">
          <mxGeometry x="1112.6199999999997" y="-326.32999999999987" width="62.5" height="20" as="geometry" />
        </mxCell>
        <mxCell id="5cIpfjfdvuiY5bLcLQ52-229" value="" style="endArrow=none;html=1;rounded=0;exitX=1;exitY=0;exitDx=0;exitDy=0;entryX=0;entryY=0.75;entryDx=0;entryDy=0;" parent="1" source="5cIpfjfdvuiY5bLcLQ52-228" target="j37J7HoHjIznkent-nm3-9" edge="1">
          <mxGeometry relative="1" as="geometry">
            <mxPoint x="1430.12" y="-309.70999999999987" as="sourcePoint" />
            <mxPoint x="1195.21" y="-333.2399999999999" as="targetPoint" />
          </mxGeometry>
        </mxCell>
        <mxCell id="5cIpfjfdvuiY5bLcLQ52-230" value="color" style="ellipse;whiteSpace=wrap;html=1;align=center;" parent="1" vertex="1">
          <mxGeometry x="1180.44" y="-311.46999999999986" width="40" height="20" as="geometry" />
        </mxCell>
        <mxCell id="5cIpfjfdvuiY5bLcLQ52-232" value="gender" style="ellipse;whiteSpace=wrap;html=1;align=center;" parent="1" vertex="1">
          <mxGeometry x="1250" y="-311.46999999999997" width="45.12" height="20" as="geometry" />
        </mxCell>
        <mxCell id="5cIpfjfdvuiY5bLcLQ52-233" value="" style="endArrow=none;html=1;rounded=0;entryX=0.75;entryY=1;entryDx=0;entryDy=0;exitX=0.5;exitY=0;exitDx=0;exitDy=0;" parent="1" source="5cIpfjfdvuiY5bLcLQ52-232" target="j37J7HoHjIznkent-nm3-9" edge="1">
          <mxGeometry relative="1" as="geometry">
            <mxPoint x="1315.7399999999998" y="-310.82999999999987" as="sourcePoint" />
            <mxPoint x="1255.0750000000003" y="-326.3299999999998" as="targetPoint" />
          </mxGeometry>
        </mxCell>
        <mxCell id="5cIpfjfdvuiY5bLcLQ52-234" value="weight_g" style="ellipse;whiteSpace=wrap;html=1;align=center;" parent="1" vertex="1">
          <mxGeometry x="1300.87" y="-326.27" width="59.13" height="20.46" as="geometry" />
        </mxCell>
        <mxCell id="5cIpfjfdvuiY5bLcLQ52-235" value="" style="endArrow=none;html=1;rounded=0;exitX=0;exitY=0;exitDx=0;exitDy=0;entryX=1;entryY=0.75;entryDx=0;entryDy=0;" parent="1" source="5cIpfjfdvuiY5bLcLQ52-234" target="j37J7HoHjIznkent-nm3-9" edge="1">
          <mxGeometry relative="1" as="geometry">
            <mxPoint x="1260.12" y="-269.71" as="sourcePoint" />
            <mxPoint x="1275.0299999999997" y="-333.2399999999999" as="targetPoint" />
          </mxGeometry>
        </mxCell>
        <mxCell id="5cIpfjfdvuiY5bLcLQ52-236" value="" style="endArrow=none;html=1;rounded=0;entryX=0.25;entryY=1;entryDx=0;entryDy=0;exitX=0.5;exitY=0;exitDx=0;exitDy=0;" parent="1" source="5cIpfjfdvuiY5bLcLQ52-230" target="j37J7HoHjIznkent-nm3-9" edge="1">
          <mxGeometry relative="1" as="geometry">
            <mxPoint x="1154.74" y="-329.82999999999987" as="sourcePoint" />
            <mxPoint x="1215.1650000000004" y="-326.3299999999998" as="targetPoint" />
          </mxGeometry>
        </mxCell>
        <mxCell id="5cIpfjfdvuiY5bLcLQ52-239" value="" style="verticalLabelPosition=bottom;verticalAlign=top;html=1;shape=mxgraph.basic.acute_triangle;dx=0.5;" parent="1" vertex="1">
          <mxGeometry x="1220.1799999999996" y="-292.71" width="30" height="20" as="geometry" />
        </mxCell>
        <mxCell id="5cIpfjfdvuiY5bLcLQ52-240" value="Cats_or_Dogs" style="whiteSpace=wrap;html=1;align=center;" parent="1" vertex="1">
          <mxGeometry x="1140.1799999999998" y="-239.71000000000004" width="100" height="40" as="geometry" />
        </mxCell>
        <mxCell id="5cIpfjfdvuiY5bLcLQ52-241" value="Other_Animals" style="whiteSpace=wrap;html=1;align=center;" parent="1" vertex="1">
          <mxGeometry x="1316.3599999999997" y="-239.71000000000004" width="100" height="40" as="geometry" />
        </mxCell>
        <mxCell id="5cIpfjfdvuiY5bLcLQ52-242" value="" style="endArrow=none;html=1;rounded=0;entryX=0;entryY=0.75;entryDx=0;entryDy=0;exitX=0.5;exitY=0;exitDx=0;exitDy=0;" parent="1" source="5cIpfjfdvuiY5bLcLQ52-248" target="5cIpfjfdvuiY5bLcLQ52-241" edge="1">
          <mxGeometry relative="1" as="geometry">
            <mxPoint x="1448.2399999999998" y="-199.71000000000004" as="sourcePoint" />
            <mxPoint x="1353.2399999999998" y="-289.71" as="targetPoint" />
          </mxGeometry>
        </mxCell>
        <mxCell id="5cIpfjfdvuiY5bLcLQ52-243" value="breed" style="ellipse;whiteSpace=wrap;html=1;align=center;" parent="1" vertex="1">
          <mxGeometry x="1090.1799999999998" y="-193.71" width="50" height="20" as="geometry" />
        </mxCell>
        <mxCell id="5cIpfjfdvuiY5bLcLQ52-244" value="" style="endArrow=none;html=1;rounded=0;exitX=0.5;exitY=0;exitDx=0;exitDy=0;entryX=0;entryY=0.75;entryDx=0;entryDy=0;" parent="1" source="5cIpfjfdvuiY5bLcLQ52-243" target="5cIpfjfdvuiY5bLcLQ52-240" edge="1">
          <mxGeometry relative="1" as="geometry">
            <mxPoint x="1123.2399999999998" y="-152.21" as="sourcePoint" />
            <mxPoint x="1033.2399999999998" y="-209.71000000000004" as="targetPoint" />
          </mxGeometry>
        </mxCell>
        <mxCell id="5cIpfjfdvuiY5bLcLQ52-245" value="" style="verticalLabelPosition=bottom;verticalAlign=top;html=1;shape=mxgraph.basic.x;fillColor=#000000;" parent="1" vertex="1">
          <mxGeometry x="1232.2399999999998" y="-282.71" width="6" height="6" as="geometry" />
        </mxCell>
        <mxCell id="5cIpfjfdvuiY5bLcLQ52-246" value="" style="endArrow=none;html=1;rounded=0;entryX=0.5;entryY=0;entryDx=0;entryDy=0;exitX=0.5;exitY=1;exitDx=0;exitDy=0;exitPerimeter=0;" parent="1" source="5cIpfjfdvuiY5bLcLQ52-239" target="5cIpfjfdvuiY5bLcLQ52-240" edge="1">
          <mxGeometry relative="1" as="geometry">
            <mxPoint x="1446.2399999999998" y="-359.70999999999987" as="sourcePoint" />
            <mxPoint x="1246.2399999999998" y="-329.70999999999987" as="targetPoint" />
            <Array as="points">
              <mxPoint x="1235" y="-249.39" />
              <mxPoint x="1190" y="-249.39" />
            </Array>
          </mxGeometry>
        </mxCell>
        <mxCell id="5cIpfjfdvuiY5bLcLQ52-247" value="" style="endArrow=none;html=1;rounded=0;exitX=0.5;exitY=1;exitDx=0;exitDy=0;exitPerimeter=0;entryX=0.5;entryY=0;entryDx=0;entryDy=0;" parent="1" source="5cIpfjfdvuiY5bLcLQ52-239" target="5cIpfjfdvuiY5bLcLQ52-241" edge="1">
          <mxGeometry relative="1" as="geometry">
            <mxPoint x="1256.2399999999998" y="-239.71000000000004" as="sourcePoint" />
            <mxPoint x="1396.2399999999998" y="-259.71" as="targetPoint" />
            <Array as="points">
              <mxPoint x="1235" y="-249.39" />
              <mxPoint x="1366.3599999999997" y="-249.46000000000004" />
            </Array>
          </mxGeometry>
        </mxCell>
        <mxCell id="5cIpfjfdvuiY5bLcLQ52-248" value="species" style="ellipse;whiteSpace=wrap;html=1;align=center;" parent="1" vertex="1">
          <mxGeometry x="1260.0499999999997" y="-193.71000000000004" width="50" height="20" as="geometry" />
        </mxCell>
        <mxCell id="5cIpfjfdvuiY5bLcLQ52-249" value="Other Mammals" style="whiteSpace=wrap;html=1;align=center;" parent="1" vertex="1">
          <mxGeometry x="1020.4399999999998" y="-139.71" width="100" height="40" as="geometry" />
        </mxCell>
        <mxCell id="5cIpfjfdvuiY5bLcLQ52-250" value="Fish" style="whiteSpace=wrap;html=1;align=center;" parent="1" vertex="1">
          <mxGeometry x="1125.4399999999998" y="-139.71" width="100" height="40" as="geometry" />
        </mxCell>
        <mxCell id="5cIpfjfdvuiY5bLcLQ52-251" value="Birds" style="whiteSpace=wrap;html=1;align=center;" parent="1" vertex="1">
          <mxGeometry x="1235.4399999999998" y="-139.71" width="100" height="40" as="geometry" />
        </mxCell>
        <mxCell id="5cIpfjfdvuiY5bLcLQ52-252" value="Reptiles" style="whiteSpace=wrap;html=1;align=center;" parent="1" vertex="1">
          <mxGeometry x="1340.4399999999998" y="-139.71" width="100" height="40" as="geometry" />
        </mxCell>
        <mxCell id="5cIpfjfdvuiY5bLcLQ52-253" value="" style="endArrow=none;html=1;rounded=0;exitX=0.5;exitY=1;exitDx=0;exitDy=0;entryX=0;entryY=0;entryDx=15;entryDy=0;entryPerimeter=0;" parent="1" source="5cIpfjfdvuiY5bLcLQ52-241" target="5cIpfjfdvuiY5bLcLQ52-258" edge="1">
          <mxGeometry relative="1" as="geometry">
            <mxPoint x="1190.7399999999998" y="-159.71" as="sourcePoint" />
            <mxPoint x="1260.7399999999998" y="-109.71" as="targetPoint" />
          </mxGeometry>
        </mxCell>
        <mxCell id="5cIpfjfdvuiY5bLcLQ52-254" value="" style="endArrow=none;html=1;rounded=0;entryX=0.5;entryY=0;entryDx=0;entryDy=0;exitX=0.5;exitY=1;exitDx=0;exitDy=0;exitPerimeter=0;" parent="1" source="5cIpfjfdvuiY5bLcLQ52-258" target="5cIpfjfdvuiY5bLcLQ52-249" edge="1">
          <mxGeometry relative="1" as="geometry">
            <mxPoint x="1373.2399999999998" y="-169.71" as="sourcePoint" />
            <mxPoint x="1383.2399999999998" y="-179.71" as="targetPoint" />
            <Array as="points">
              <mxPoint x="1366.3599999999997" y="-159.46" />
              <mxPoint x="1070" y="-159.39" />
            </Array>
          </mxGeometry>
        </mxCell>
        <mxCell id="5cIpfjfdvuiY5bLcLQ52-255" value="" style="endArrow=none;html=1;rounded=0;entryX=0.5;entryY=0;entryDx=0;entryDy=0;exitX=0.5;exitY=1;exitDx=0;exitDy=0;exitPerimeter=0;" parent="1" source="5cIpfjfdvuiY5bLcLQ52-258" target="5cIpfjfdvuiY5bLcLQ52-250" edge="1">
          <mxGeometry relative="1" as="geometry">
            <mxPoint x="1373.2399999999998" y="-169.71" as="sourcePoint" />
            <mxPoint x="1183.2399999999998" y="-129.70999999999998" as="targetPoint" />
            <Array as="points">
              <mxPoint x="1366.3599999999997" y="-159.46" />
              <mxPoint x="1175" y="-159.39" />
            </Array>
          </mxGeometry>
        </mxCell>
        <mxCell id="5cIpfjfdvuiY5bLcLQ52-256" value="" style="endArrow=none;html=1;rounded=0;entryX=0.5;entryY=1;entryDx=0;entryDy=0;exitX=0.5;exitY=0;exitDx=0;exitDy=0;entryPerimeter=0;" parent="1" source="5cIpfjfdvuiY5bLcLQ52-251" target="5cIpfjfdvuiY5bLcLQ52-258" edge="1">
          <mxGeometry relative="1" as="geometry">
            <mxPoint x="1393.2399999999998" y="-149.71" as="sourcePoint" />
            <mxPoint x="1373.2399999999998" y="-169.71" as="targetPoint" />
            <Array as="points">
              <mxPoint x="1285" y="-159.39" />
              <mxPoint x="1366.3599999999997" y="-159.46" />
            </Array>
          </mxGeometry>
        </mxCell>
        <mxCell id="5cIpfjfdvuiY5bLcLQ52-257" value="" style="endArrow=none;html=1;rounded=0;entryX=0.5;entryY=1;entryDx=0;entryDy=0;exitX=0.5;exitY=0;exitDx=0;exitDy=0;entryPerimeter=0;" parent="1" source="5cIpfjfdvuiY5bLcLQ52-252" target="5cIpfjfdvuiY5bLcLQ52-258" edge="1">
          <mxGeometry relative="1" as="geometry">
            <mxPoint x="1403.2399999999998" y="-139.71" as="sourcePoint" />
            <mxPoint x="1373.2399999999998" y="-169.71" as="targetPoint" />
            <Array as="points">
              <mxPoint x="1390" y="-159.39" />
              <mxPoint x="1366.3599999999997" y="-159.46" />
            </Array>
          </mxGeometry>
        </mxCell>
        <mxCell id="5cIpfjfdvuiY5bLcLQ52-258" value="" style="verticalLabelPosition=bottom;verticalAlign=top;html=1;shape=mxgraph.basic.acute_triangle;dx=0.5;" parent="1" vertex="1">
          <mxGeometry x="1351.3599999999997" y="-189.71" width="30" height="20" as="geometry" />
        </mxCell>
        <mxCell id="5cIpfjfdvuiY5bLcLQ52-259" value="" style="verticalLabelPosition=bottom;verticalAlign=top;html=1;shape=mxgraph.basic.x;fillColor=#000000;" parent="1" vertex="1">
          <mxGeometry x="1363.3599999999997" y="-179.71" width="6" height="6" as="geometry" />
        </mxCell>
        <mxCell id="5cIpfjfdvuiY5bLcLQ52-272" value="" style="endArrow=classic;html=1;rounded=0;fontFamily=Helvetica;fontSize=12;fontColor=default;autosize=0;resizable=1;exitX=0.5;exitY=0;exitDx=0;exitDy=0;entryX=0.5;entryY=0;entryDx=0;entryDy=0;" parent="1" edge="1">
          <mxGeometry width="50" height="50" relative="1" as="geometry">
            <mxPoint x="1082.11" y="-495.9999999999999" as="sourcePoint" />
            <mxPoint x="1082.11" y="-495.9999999999999" as="targetPoint" />
          </mxGeometry>
        </mxCell>
        <mxCell id="5cIpfjfdvuiY5bLcLQ52-283" value="&amp;lt;assists" style="shape=rhombus;perimeter=rhombusPerimeter;whiteSpace=wrap;html=1;align=center;verticalAlign=middle;fontFamily=Helvetica;fontSize=12;fontColor=default;autosize=0;resizable=1;fillColor=none;gradientColor=none;" parent="1" vertex="1">
          <mxGeometry x="1484.9999999999998" y="-678.14" width="95" height="47.5" as="geometry" />
        </mxCell>
        <mxCell id="5cIpfjfdvuiY5bLcLQ52-284" value="" style="endArrow=none;html=1;rounded=0;fontFamily=Helvetica;fontSize=12;fontColor=default;autosize=0;resizable=1;entryX=0;entryY=0.5;entryDx=0;entryDy=0;exitX=1;exitY=0.5;exitDx=0;exitDy=0;" parent="1" source="5cIpfjfdvuiY5bLcLQ52-500" target="5cIpfjfdvuiY5bLcLQ52-283" edge="1">
          <mxGeometry width="50" height="50" relative="1" as="geometry">
            <mxPoint x="1235.0500000000002" y="-587.4999999999999" as="sourcePoint" />
            <mxPoint x="1425.12" y="-520" as="targetPoint" />
          </mxGeometry>
        </mxCell>
        <mxCell id="5cIpfjfdvuiY5bLcLQ52-288" value="Diagnostic_code" style="whiteSpace=wrap;html=1;align=center;" parent="1" vertex="1">
          <mxGeometry x="1507.5" y="-573.75" width="100" height="40" as="geometry" />
        </mxCell>
        <mxCell id="5cIpfjfdvuiY5bLcLQ52-289" value="&lt;u&gt;code&lt;/u&gt;" style="ellipse;whiteSpace=wrap;html=1;align=center;" parent="1" vertex="1">
          <mxGeometry x="1499.55" y="-516.39" width="50" height="20" as="geometry" />
        </mxCell>
        <mxCell id="5cIpfjfdvuiY5bLcLQ52-290" value="" style="endArrow=none;html=1;rounded=0;exitX=0.5;exitY=0;exitDx=0;exitDy=0;entryX=0.25;entryY=1;entryDx=0;entryDy=0;" parent="1" source="5cIpfjfdvuiY5bLcLQ52-289" target="5cIpfjfdvuiY5bLcLQ52-288" edge="1">
          <mxGeometry relative="1" as="geometry">
            <mxPoint x="1727.5" y="-618.0799999999999" as="sourcePoint" />
            <mxPoint x="1887.5" y="-618.0799999999999" as="targetPoint" />
          </mxGeometry>
        </mxCell>
        <mxCell id="5cIpfjfdvuiY5bLcLQ52-291" value="description" style="ellipse;whiteSpace=wrap;html=1;align=center;" parent="1" vertex="1">
          <mxGeometry x="1560" y="-516.39" width="70" height="20" as="geometry" />
        </mxCell>
        <mxCell id="5cIpfjfdvuiY5bLcLQ52-292" value="" style="endArrow=none;html=1;rounded=0;exitX=0.5;exitY=0;exitDx=0;exitDy=0;entryX=0.75;entryY=1;entryDx=0;entryDy=0;" parent="1" source="5cIpfjfdvuiY5bLcLQ52-291" target="5cIpfjfdvuiY5bLcLQ52-288" edge="1">
          <mxGeometry relative="1" as="geometry">
            <mxPoint x="1802.5" y="-643.0799999999999" as="sourcePoint" />
            <mxPoint x="1817.5" y="-653.0799999999999" as="targetPoint" />
          </mxGeometry>
        </mxCell>
        <mxCell id="5cIpfjfdvuiY5bLcLQ52-293" value="Prescription" style="whiteSpace=wrap;html=1;align=center;" parent="1" vertex="1">
          <mxGeometry x="1369.55" y="-410.27" width="100" height="40" as="geometry" />
        </mxCell>
        <mxCell id="5cIpfjfdvuiY5bLcLQ52-296" value="prescription_id" style="ellipse;whiteSpace=wrap;html=1;align=center;fontStyle=4;" parent="1" vertex="1">
          <mxGeometry x="1369.31" y="-357.77" width="100" height="22.5" as="geometry" />
        </mxCell>
        <mxCell id="5cIpfjfdvuiY5bLcLQ52-297" value="" style="endArrow=none;html=1;rounded=0;exitX=0.5;exitY=0;exitDx=0;exitDy=0;entryX=0.5;entryY=1;entryDx=0;entryDy=0;" parent="1" source="5cIpfjfdvuiY5bLcLQ52-296" target="5cIpfjfdvuiY5bLcLQ52-293" edge="1">
          <mxGeometry relative="1" as="geometry">
            <mxPoint x="1756" y="-494.21999999999997" as="sourcePoint" />
            <mxPoint x="1816" y="-484.21999999999997" as="targetPoint" />
          </mxGeometry>
        </mxCell>
        <mxCell id="5cIpfjfdvuiY5bLcLQ52-305" value="" style="endArrow=none;html=1;rounded=0;exitX=0.5;exitY=1;exitDx=0;exitDy=0;entryX=1;entryY=0.25;entryDx=0;entryDy=0;" parent="1" source="j37J7HoHjIznkent-nm3-7" target="5cIpfjfdvuiY5bLcLQ52-500" edge="1">
          <mxGeometry relative="1" as="geometry">
            <mxPoint x="1368.44" y="-604.9999999999999" as="sourcePoint" />
            <mxPoint x="1447.62" y="-674.9999999999999" as="targetPoint" />
          </mxGeometry>
        </mxCell>
        <mxCell id="5cIpfjfdvuiY5bLcLQ52-307" value="" style="endArrow=none;html=1;rounded=0;exitX=0.5;exitY=1;exitDx=0;exitDy=0;entryX=1;entryY=0;entryDx=0;entryDy=0;" parent="1" source="j37J7HoHjIznkent-nm3-6" target="5cIpfjfdvuiY5bLcLQ52-500" edge="1">
          <mxGeometry relative="1" as="geometry">
            <mxPoint x="1347.0349999999999" y="-607.61" as="sourcePoint" />
            <mxPoint x="1422.62" y="-674.9999999999999" as="targetPoint" />
          </mxGeometry>
        </mxCell>
        <mxCell id="5cIpfjfdvuiY5bLcLQ52-309" value="" style="endArrow=none;html=1;rounded=0;exitX=0.5;exitY=1;exitDx=0;exitDy=0;entryX=0.75;entryY=0;entryDx=0;entryDy=0;" parent="1" source="j37J7HoHjIznkent-nm3-5" target="5cIpfjfdvuiY5bLcLQ52-500" edge="1">
          <mxGeometry relative="1" as="geometry">
            <mxPoint x="1316.335" y="-606.5" as="sourcePoint" />
            <mxPoint x="1310" y="-586.39" as="targetPoint" />
          </mxGeometry>
        </mxCell>
        <mxCell id="5cIpfjfdvuiY5bLcLQ52-310" value="S" style="ellipse;whiteSpace=wrap;html=1;align=center;" parent="1" vertex="1">
          <mxGeometry x="1238.24" y="-613.09" width="29.95" height="13.61" as="geometry" />
        </mxCell>
        <mxCell id="5cIpfjfdvuiY5bLcLQ52-311" value="" style="endArrow=none;html=1;rounded=0;exitX=0.5;exitY=1;exitDx=0;exitDy=0;entryX=0.5;entryY=0;entryDx=0;entryDy=0;" parent="1" source="5cIpfjfdvuiY5bLcLQ52-310" target="5cIpfjfdvuiY5bLcLQ52-500" edge="1">
          <mxGeometry relative="1" as="geometry">
            <mxPoint x="1420.12" y="-685.25" as="sourcePoint" />
            <mxPoint x="1372.62" y="-674.9999999999999" as="targetPoint" />
          </mxGeometry>
        </mxCell>
        <mxCell id="5cIpfjfdvuiY5bLcLQ52-312" value="warrants&amp;gt;" style="shape=rhombus;perimeter=rhombusPerimeter;whiteSpace=wrap;html=1;align=center;verticalAlign=middle;fontFamily=Helvetica;fontSize=12;fontColor=default;autosize=0;resizable=1;fillColor=none;gradientColor=none;rotation=-90;" parent="1" vertex="1">
          <mxGeometry x="1385.45" y="-496.39" width="68.19" height="41.11" as="geometry" />
        </mxCell>
        <mxCell id="5cIpfjfdvuiY5bLcLQ52-313" value="" style="endArrow=none;html=1;rounded=0;fontFamily=Helvetica;fontSize=12;fontColor=default;autosize=0;resizable=1;entryX=0;entryY=0.5;entryDx=0;entryDy=0;exitX=1;exitY=0.5;exitDx=0;exitDy=0;" parent="1" source="5cIpfjfdvuiY5bLcLQ52-465" target="5cIpfjfdvuiY5bLcLQ52-288" edge="1">
          <mxGeometry relative="1" as="geometry">
            <mxPoint x="2330" y="-552.72" as="sourcePoint" />
            <mxPoint x="2290" y="-572.72" as="targetPoint" />
          </mxGeometry>
        </mxCell>
        <mxCell id="5cIpfjfdvuiY5bLcLQ52-314" value="" style="resizable=0;html=1;whiteSpace=wrap;align=left;verticalAlign=bottom;fontFamily=Helvetica;fontSize=12;fontColor=default;autosize=0;fillColor=none;gradientColor=none;" parent="5cIpfjfdvuiY5bLcLQ52-313" connectable="0" vertex="1">
          <mxGeometry x="-1" relative="1" as="geometry" />
        </mxCell>
        <mxCell id="5cIpfjfdvuiY5bLcLQ52-315" value="" style="resizable=0;html=1;whiteSpace=wrap;align=right;verticalAlign=bottom;fontFamily=Helvetica;fontSize=12;fontColor=default;autosize=0;fillColor=none;gradientColor=none;" parent="5cIpfjfdvuiY5bLcLQ52-313" connectable="0" vertex="1">
          <mxGeometry x="1" relative="1" as="geometry" />
        </mxCell>
        <mxCell id="5cIpfjfdvuiY5bLcLQ52-316" value="precribes&amp;gt;" style="shape=rhombus;double=1;perimeter=rhombusPerimeter;whiteSpace=wrap;html=1;align=center;" parent="1" vertex="1">
          <mxGeometry x="1507.5" y="-414.02" width="85" height="47.5" as="geometry" />
        </mxCell>
        <mxCell id="5cIpfjfdvuiY5bLcLQ52-319" value="" style="html=1;rounded=0;shape=link;entryX=0.5;entryY=0;entryDx=0;entryDy=0;exitX=0;exitY=0.5;exitDx=0;exitDy=0;" parent="1" source="j37J7HoHjIznkent-nm3-30" target="5cIpfjfdvuiY5bLcLQ52-469" edge="1">
          <mxGeometry relative="1" as="geometry">
            <mxPoint x="1550" y="-356.39" as="sourcePoint" />
            <mxPoint x="1680.0000000000005" y="-46.59999999999998" as="targetPoint" />
          </mxGeometry>
        </mxCell>
        <mxCell id="5cIpfjfdvuiY5bLcLQ52-321" value="" style="shape=link;html=1;rounded=0;exitX=0;exitY=0.5;exitDx=0;exitDy=0;entryX=1;entryY=0.5;entryDx=0;entryDy=0;" parent="1" source="5cIpfjfdvuiY5bLcLQ52-316" target="5cIpfjfdvuiY5bLcLQ52-293" edge="1">
          <mxGeometry relative="1" as="geometry">
            <mxPoint x="1704" y="-260.21999999999997" as="sourcePoint" />
            <mxPoint x="1646" y="-154.21999999999997" as="targetPoint" />
          </mxGeometry>
        </mxCell>
        <mxCell id="5cIpfjfdvuiY5bLcLQ52-322" value="" style="resizable=0;html=1;whiteSpace=wrap;align=right;verticalAlign=bottom;" parent="5cIpfjfdvuiY5bLcLQ52-321" connectable="0" vertex="1">
          <mxGeometry x="1" relative="1" as="geometry" />
        </mxCell>
        <mxCell id="5cIpfjfdvuiY5bLcLQ52-323" value="" style="endArrow=none;html=1;rounded=0;exitX=1;exitY=0.5;exitDx=0;exitDy=0;entryX=0.5;entryY=1;entryDx=0;entryDy=0;" parent="1" source="5cIpfjfdvuiY5bLcLQ52-312" target="5cIpfjfdvuiY5bLcLQ52-531" edge="1">
          <mxGeometry width="50" height="50" relative="1" as="geometry">
            <mxPoint x="1810" y="-699.97" as="sourcePoint" />
            <mxPoint x="1714.88" y="-413.58" as="targetPoint" />
          </mxGeometry>
        </mxCell>
        <mxCell id="5cIpfjfdvuiY5bLcLQ52-326" value="Procedure" style="whiteSpace=wrap;html=1;align=center;" parent="1" vertex="1">
          <mxGeometry x="1185" y="-736.39" width="100" height="40" as="geometry" />
        </mxCell>
        <mxCell id="5cIpfjfdvuiY5bLcLQ52-327" value="involves" style="shape=rhombus;perimeter=rhombusPerimeter;whiteSpace=wrap;html=1;align=center;verticalAlign=middle;fontFamily=Helvetica;fontSize=12;fontColor=default;autosize=0;resizable=1;fillColor=none;gradientColor=none;allowArrows=0;pointerEvents=1;rotation=-90;" parent="1" vertex="1">
          <mxGeometry x="1202.53" y="-659.5400000000001" width="64.94" height="32.89" as="geometry" />
        </mxCell>
        <mxCell id="5cIpfjfdvuiY5bLcLQ52-328" value="" style="endArrow=none;html=1;rounded=0;fontFamily=Helvetica;fontSize=12;fontColor=default;autosize=0;resizable=1;entryX=0;entryY=0.5;entryDx=0;entryDy=0;exitX=0.25;exitY=0;exitDx=0;exitDy=0;" parent="1" source="5cIpfjfdvuiY5bLcLQ52-500" target="5cIpfjfdvuiY5bLcLQ52-327" edge="1">
          <mxGeometry width="50" height="50" relative="1" as="geometry">
            <mxPoint x="1227.8300000000002" y="-583.39" as="sourcePoint" />
            <mxPoint x="1227.84" y="-640.5" as="targetPoint" />
            <Array as="points" />
          </mxGeometry>
        </mxCell>
        <mxCell id="5cIpfjfdvuiY5bLcLQ52-332" value="description" style="ellipse;whiteSpace=wrap;html=1;align=center;fontStyle=4" parent="1" vertex="1">
          <mxGeometry x="1268.19" y="-776.39" width="65" height="26" as="geometry" />
        </mxCell>
        <mxCell id="5cIpfjfdvuiY5bLcLQ52-333" value="" style="endArrow=none;html=1;rounded=0;exitX=0;exitY=1;exitDx=0;exitDy=0;entryX=0.75;entryY=0;entryDx=0;entryDy=0;" parent="1" source="5cIpfjfdvuiY5bLcLQ52-332" target="5cIpfjfdvuiY5bLcLQ52-326" edge="1">
          <mxGeometry relative="1" as="geometry">
            <mxPoint x="1360.81" y="-754.25" as="sourcePoint" />
            <mxPoint x="1410.81" y="-804.25" as="targetPoint" />
          </mxGeometry>
        </mxCell>
        <mxCell id="5cIpfjfdvuiY5bLcLQ52-334" value="report" style="ellipse;whiteSpace=wrap;html=1;align=center;" parent="1" vertex="1">
          <mxGeometry x="1143.48" y="-776.39" width="59.95" height="26" as="geometry" />
        </mxCell>
        <mxCell id="5cIpfjfdvuiY5bLcLQ52-335" value="" style="endArrow=none;html=1;rounded=0;exitX=1;exitY=1;exitDx=0;exitDy=0;entryX=0.25;entryY=0;entryDx=0;entryDy=0;" parent="1" source="5cIpfjfdvuiY5bLcLQ52-334" target="5cIpfjfdvuiY5bLcLQ52-326" edge="1">
          <mxGeometry relative="1" as="geometry">
            <mxPoint x="1511.2206185622917" y="-824.254154880746" as="sourcePoint" />
            <mxPoint x="1355.81" y="-891.01" as="targetPoint" />
          </mxGeometry>
        </mxCell>
        <mxCell id="5cIpfjfdvuiY5bLcLQ52-341" value="&amp;lt;performes" style="shape=rhombus;perimeter=rhombusPerimeter;whiteSpace=wrap;html=1;align=center;verticalAlign=middle;fontFamily=Helvetica;fontSize=12;fontColor=default;autosize=0;resizable=1;fillColor=none;gradientColor=none;" parent="1" vertex="1">
          <mxGeometry x="1342.94" y="-740.14" width="95" height="47.5" as="geometry" />
        </mxCell>
        <mxCell id="5cIpfjfdvuiY5bLcLQ52-342" value="" style="endArrow=none;html=1;rounded=0;entryX=0;entryY=0.5;entryDx=0;entryDy=0;exitX=1;exitY=0.5;exitDx=0;exitDy=0;" parent="1" source="5cIpfjfdvuiY5bLcLQ52-326" target="5cIpfjfdvuiY5bLcLQ52-341" edge="1">
          <mxGeometry width="50" height="50" relative="1" as="geometry">
            <mxPoint x="1655.81" y="-510" as="sourcePoint" />
            <mxPoint x="1705.81" y="-560" as="targetPoint" />
          </mxGeometry>
        </mxCell>
        <mxCell id="5cIpfjfdvuiY5bLcLQ52-343" value="" style="endArrow=none;html=1;rounded=0;entryX=0;entryY=0.5;entryDx=0;entryDy=0;exitX=1;exitY=0.5;exitDx=0;exitDy=0;" parent="1" source="5cIpfjfdvuiY5bLcLQ52-341" target="5cIpfjfdvuiY5bLcLQ52-219" edge="1">
          <mxGeometry width="50" height="50" relative="1" as="geometry">
            <mxPoint x="1443.7599999999998" y="-503.74999999999994" as="sourcePoint" />
            <mxPoint x="1493.7599999999998" y="-553.75" as="targetPoint" />
          </mxGeometry>
        </mxCell>
        <mxCell id="5cIpfjfdvuiY5bLcLQ52-346" value="Other_Procedures" style="whiteSpace=wrap;html=1;align=center;" parent="1" vertex="1">
          <mxGeometry x="1227.31" y="-880" width="100" height="40" as="geometry" />
        </mxCell>
        <mxCell id="5cIpfjfdvuiY5bLcLQ52-347" value="" style="verticalLabelPosition=bottom;verticalAlign=top;html=1;shape=mxgraph.basic.acute_triangle;dx=0.5;rotation=-180;" parent="1" vertex="1">
          <mxGeometry x="1220.24" y="-806.39" width="30" height="20" as="geometry" />
        </mxCell>
        <mxCell id="5cIpfjfdvuiY5bLcLQ52-348" value="Surgical" style="whiteSpace=wrap;html=1;align=center;" parent="1" vertex="1">
          <mxGeometry x="1332.31" y="-880" width="100" height="40" as="geometry" />
        </mxCell>
        <mxCell id="5cIpfjfdvuiY5bLcLQ52-349" value="Test" style="whiteSpace=wrap;html=1;align=center;" parent="1" vertex="1">
          <mxGeometry x="1120.44" y="-880" width="100" height="40" as="geometry" />
        </mxCell>
        <mxCell id="5cIpfjfdvuiY5bLcLQ52-350" value="Radiography" style="whiteSpace=wrap;html=1;align=center;" parent="1" vertex="1">
          <mxGeometry x="1437.31" y="-880" width="100" height="40" as="geometry" />
        </mxCell>
        <mxCell id="5cIpfjfdvuiY5bLcLQ52-377" value="" style="html=1;rounded=0;exitX=0.5;exitY=0;exitDx=0;exitDy=0;shape=link;entryX=0.5;entryY=1;entryDx=0;entryDy=0;" parent="1" target="5cIpfjfdvuiY5bLcLQ52-492" edge="1">
          <mxGeometry relative="1" as="geometry">
            <mxPoint x="1055.44" y="-839.9999999999999" as="sourcePoint" />
            <mxPoint x="1062.69" y="-989.7400000000001" as="targetPoint" />
          </mxGeometry>
        </mxCell>
        <mxCell id="5cIpfjfdvuiY5bLcLQ52-379" value="ref_range" style="ellipse;whiteSpace=wrap;html=1;align=center;" parent="1" vertex="1">
          <mxGeometry x="902.3800000000001" y="-816.3899999999999" width="80" height="20" as="geometry" />
        </mxCell>
        <mxCell id="5cIpfjfdvuiY5bLcLQ52-380" value="" style="endArrow=none;html=1;rounded=0;exitX=1;exitY=1;exitDx=0;exitDy=0;entryX=0;entryY=0.25;entryDx=0;entryDy=0;" parent="1" source="5cIpfjfdvuiY5bLcLQ52-379" target="5cIpfjfdvuiY5bLcLQ52-383" edge="1">
          <mxGeometry relative="1" as="geometry">
            <mxPoint x="1132.6200000000001" y="-983.2399999999999" as="sourcePoint" />
            <mxPoint x="982.69" y="-1060" as="targetPoint" />
          </mxGeometry>
        </mxCell>
        <mxCell id="5cIpfjfdvuiY5bLcLQ52-381" value="description" style="ellipse;whiteSpace=wrap;html=1;align=center;" parent="1" vertex="1">
          <mxGeometry x="902.3800000000001" y="-773.3899999999998" width="80" height="20" as="geometry" />
        </mxCell>
        <mxCell id="5cIpfjfdvuiY5bLcLQ52-382" value="" style="endArrow=none;html=1;rounded=0;exitX=1;exitY=0;exitDx=0;exitDy=0;entryX=0;entryY=0.75;entryDx=0;entryDy=0;" parent="1" source="5cIpfjfdvuiY5bLcLQ52-381" target="5cIpfjfdvuiY5bLcLQ52-383" edge="1">
          <mxGeometry relative="1" as="geometry">
            <mxPoint x="1137.69" y="-933.24" as="sourcePoint" />
            <mxPoint x="982.69" y="-1040" as="targetPoint" />
          </mxGeometry>
        </mxCell>
        <mxCell id="5cIpfjfdvuiY5bLcLQ52-383" value="Observed_Values" style="shape=ext;margin=3;double=1;whiteSpace=wrap;html=1;align=center;" parent="1" vertex="1">
          <mxGeometry x="1000" y="-806.39" width="110" height="40" as="geometry" />
        </mxCell>
        <mxCell id="5cIpfjfdvuiY5bLcLQ52-386" value="units" style="ellipse;whiteSpace=wrap;html=1;align=center;" parent="1" vertex="1">
          <mxGeometry x="1043" y="-756.39" width="54.88" height="20" as="geometry" />
        </mxCell>
        <mxCell id="5cIpfjfdvuiY5bLcLQ52-387" value="" style="endArrow=none;html=1;rounded=0;exitX=0.5;exitY=0;exitDx=0;exitDy=0;entryX=0.5;entryY=1;entryDx=0;entryDy=0;" parent="1" source="5cIpfjfdvuiY5bLcLQ52-386" target="5cIpfjfdvuiY5bLcLQ52-383" edge="1">
          <mxGeometry relative="1" as="geometry">
            <mxPoint x="1483.8200000000002" y="-1031.85" as="sourcePoint" />
            <mxPoint x="1523.8200000000002" y="-1067.8500000000001" as="targetPoint" />
          </mxGeometry>
        </mxCell>
        <mxCell id="5cIpfjfdvuiY5bLcLQ52-389" value="" style="html=1;rounded=0;exitX=0;exitY=0.5;exitDx=0;exitDy=0;shape=link;entryX=1;entryY=0.5;entryDx=0;entryDy=0;" parent="1" source="5cIpfjfdvuiY5bLcLQ52-349" target="5cIpfjfdvuiY5bLcLQ52-492" edge="1">
          <mxGeometry relative="1" as="geometry">
            <mxPoint x="1075.81" y="-1061.5000000000002" as="sourcePoint" />
            <mxPoint x="1062.69" y="-959.7400000000001" as="targetPoint" />
          </mxGeometry>
        </mxCell>
        <mxCell id="5cIpfjfdvuiY5bLcLQ52-391" value="name" style="ellipse;whiteSpace=wrap;html=1;align=center;" parent="1" vertex="1">
          <mxGeometry x="919.89" y="-653.1" width="50" height="20" as="geometry" />
        </mxCell>
        <mxCell id="5cIpfjfdvuiY5bLcLQ52-392" value="" style="endArrow=none;html=1;rounded=0;exitX=1;exitY=0.5;exitDx=0;exitDy=0;entryX=0;entryY=0.5;entryDx=0;entryDy=0;" parent="1" source="5cIpfjfdvuiY5bLcLQ52-391" target="5cIpfjfdvuiY5bLcLQ52-217" edge="1">
          <mxGeometry relative="1" as="geometry">
            <mxPoint x="512.52" y="-668.5400000000001" as="sourcePoint" />
            <mxPoint x="567.5199999999994" y="-643.54" as="targetPoint" />
          </mxGeometry>
        </mxCell>
        <mxCell id="5cIpfjfdvuiY5bLcLQ52-393" value="adress_line_1" style="ellipse;whiteSpace=wrap;html=1;align=center;" parent="1" vertex="1">
          <mxGeometry x="899.94" y="-680.45" width="84.88" height="22.71" as="geometry" />
        </mxCell>
        <mxCell id="5cIpfjfdvuiY5bLcLQ52-394" value="" style="endArrow=none;html=1;rounded=0;exitX=1;exitY=1;exitDx=0;exitDy=0;entryX=0;entryY=0.25;entryDx=0;entryDy=0;" parent="1" source="5cIpfjfdvuiY5bLcLQ52-393" target="5cIpfjfdvuiY5bLcLQ52-217" edge="1">
          <mxGeometry relative="1" as="geometry">
            <mxPoint x="587.52" y="-693.5400000000001" as="sourcePoint" />
            <mxPoint x="567.5199999999994" y="-683.5399999999997" as="targetPoint" />
          </mxGeometry>
        </mxCell>
        <mxCell id="5cIpfjfdvuiY5bLcLQ52-395" value="address_line_2" style="ellipse;whiteSpace=wrap;html=1;align=center;" parent="1" vertex="1">
          <mxGeometry x="930.55" y="-712.64" width="89.89" height="24.06" as="geometry" />
        </mxCell>
        <mxCell id="5cIpfjfdvuiY5bLcLQ52-396" value="" style="endArrow=none;html=1;rounded=0;exitX=0.5;exitY=1;exitDx=0;exitDy=0;entryX=0.25;entryY=0;entryDx=0;entryDy=0;" parent="1" source="5cIpfjfdvuiY5bLcLQ52-395" target="5cIpfjfdvuiY5bLcLQ52-217" edge="1">
          <mxGeometry relative="1" as="geometry">
            <mxPoint x="532.52" y="-648.5400000000001" as="sourcePoint" />
            <mxPoint x="592.5199999999994" y="-683.5399999999997" as="targetPoint" />
          </mxGeometry>
        </mxCell>
        <mxCell id="5cIpfjfdvuiY5bLcLQ52-397" value="city" style="ellipse;whiteSpace=wrap;html=1;align=center;" parent="1" vertex="1">
          <mxGeometry x="1090.1799999999998" y="-700.45" width="41.63" height="20" as="geometry" />
        </mxCell>
        <mxCell id="5cIpfjfdvuiY5bLcLQ52-398" value="" style="endArrow=none;html=1;rounded=0;exitX=0;exitY=1;exitDx=0;exitDy=0;entryX=0.75;entryY=0;entryDx=0;entryDy=0;" parent="1" source="5cIpfjfdvuiY5bLcLQ52-397" target="5cIpfjfdvuiY5bLcLQ52-217" edge="1">
          <mxGeometry relative="1" as="geometry">
            <mxPoint x="552.52" y="-628.5400000000001" as="sourcePoint" />
            <mxPoint x="614.9" y="-667.1500000000001" as="targetPoint" />
          </mxGeometry>
        </mxCell>
        <mxCell id="5cIpfjfdvuiY5bLcLQ52-399" value="postcode" style="ellipse;whiteSpace=wrap;html=1;align=center;" parent="1" vertex="1">
          <mxGeometry x="1027.2499999999998" y="-712.64" width="62.93" height="20" as="geometry" />
        </mxCell>
        <mxCell id="5cIpfjfdvuiY5bLcLQ52-400" value="" style="endArrow=none;html=1;rounded=0;exitX=0.5;exitY=1;exitDx=0;exitDy=0;entryX=0.5;entryY=0;entryDx=0;entryDy=0;" parent="1" source="5cIpfjfdvuiY5bLcLQ52-399" target="5cIpfjfdvuiY5bLcLQ52-217" edge="1">
          <mxGeometry relative="1" as="geometry">
            <mxPoint x="562.52" y="-618.5400000000001" as="sourcePoint" />
            <mxPoint x="592.5199999999994" y="-643.54" as="targetPoint" />
          </mxGeometry>
        </mxCell>
        <mxCell id="5cIpfjfdvuiY5bLcLQ52-401" value="&lt;u&gt;phone_nr&lt;/u&gt;" style="ellipse;whiteSpace=wrap;html=1;align=center;" parent="1" vertex="1">
          <mxGeometry x="1416.3600000000001" y="-758.0999999999999" width="63.24" height="23.42" as="geometry" />
        </mxCell>
        <mxCell id="5cIpfjfdvuiY5bLcLQ52-402" value="" style="endArrow=none;html=1;rounded=0;exitX=1;exitY=0.5;exitDx=0;exitDy=0;entryX=0.25;entryY=0;entryDx=0;entryDy=0;" parent="1" source="5cIpfjfdvuiY5bLcLQ52-401" target="5cIpfjfdvuiY5bLcLQ52-219" edge="1">
          <mxGeometry relative="1" as="geometry">
            <mxPoint x="665.2" y="-562.5" as="sourcePoint" />
            <mxPoint x="680.2" y="-572.5" as="targetPoint" />
          </mxGeometry>
        </mxCell>
        <mxCell id="5cIpfjfdvuiY5bLcLQ52-404" value="" style="html=1;rounded=0;shape=link;entryX=0;entryY=0.25;entryDx=0;entryDy=0;exitX=0;exitY=0.5;exitDx=0;exitDy=0;" parent="1" source="j37J7HoHjIznkent-nm3-27" target="5cIpfjfdvuiY5bLcLQ52-500" edge="1">
          <mxGeometry relative="1" as="geometry">
            <mxPoint x="1160" y="-576.39" as="sourcePoint" />
            <mxPoint x="1197.6199999999994" y="-584.9999999999999" as="targetPoint" />
          </mxGeometry>
        </mxCell>
        <mxCell id="5cIpfjfdvuiY5bLcLQ52-409" value="" style="endArrow=none;html=1;rounded=0;exitX=0;exitY=0;exitDx=15;exitDy=0;exitPerimeter=0;entryX=0.5;entryY=1;entryDx=0;entryDy=0;" parent="1" source="5cIpfjfdvuiY5bLcLQ52-239" edge="1">
          <mxGeometry relative="1" as="geometry">
            <mxPoint x="570.12" y="-269.71" as="sourcePoint" />
            <mxPoint x="1235.12" y="-326.3299999999998" as="targetPoint" />
            <Array as="points" />
          </mxGeometry>
        </mxCell>
        <mxCell id="5cIpfjfdvuiY5bLcLQ52-410" value="tin" style="ellipse;whiteSpace=wrap;html=1;align=center;fontStyle=4" parent="1" vertex="1">
          <mxGeometry x="1049.8700000000001" y="-417.82" width="36.25" height="20" as="geometry" />
        </mxCell>
        <mxCell id="5cIpfjfdvuiY5bLcLQ52-412" value="" style="endArrow=none;html=1;rounded=0;exitX=0.5;exitY=1;exitDx=0;exitDy=0;exitPerimeter=0;entryX=0.5;entryY=1;entryDx=0;entryDy=0;" parent="1" source="5cIpfjfdvuiY5bLcLQ52-347" target="5cIpfjfdvuiY5bLcLQ52-350" edge="1">
          <mxGeometry width="50" height="50" relative="1" as="geometry">
            <mxPoint x="1336.7399999999998" y="-776.39" as="sourcePoint" />
            <mxPoint x="1507.31" y="-860" as="targetPoint" />
            <Array as="points">
              <mxPoint x="1235" y="-820.39" />
              <mxPoint x="1487.31" y="-820" />
            </Array>
          </mxGeometry>
        </mxCell>
        <mxCell id="5cIpfjfdvuiY5bLcLQ52-413" value="" style="endArrow=none;html=1;rounded=0;exitX=0.5;exitY=1;exitDx=0;exitDy=0;exitPerimeter=0;entryX=0.5;entryY=1;entryDx=0;entryDy=0;" parent="1" source="5cIpfjfdvuiY5bLcLQ52-347" target="5cIpfjfdvuiY5bLcLQ52-348" edge="1">
          <mxGeometry width="50" height="50" relative="1" as="geometry">
            <mxPoint x="1336.7399999999998" y="-776.39" as="sourcePoint" />
            <mxPoint x="1497.31" y="-830" as="targetPoint" />
            <Array as="points">
              <mxPoint x="1235" y="-820.39" />
              <mxPoint x="1382.31" y="-820" />
            </Array>
          </mxGeometry>
        </mxCell>
        <mxCell id="5cIpfjfdvuiY5bLcLQ52-414" value="" style="endArrow=none;html=1;rounded=0;exitX=0.5;exitY=1;exitDx=0;exitDy=0;exitPerimeter=0;entryX=0.5;entryY=1;entryDx=0;entryDy=0;" parent="1" source="5cIpfjfdvuiY5bLcLQ52-347" target="5cIpfjfdvuiY5bLcLQ52-346" edge="1">
          <mxGeometry width="50" height="50" relative="1" as="geometry">
            <mxPoint x="1336.7399999999998" y="-776.39" as="sourcePoint" />
            <mxPoint x="1392.31" y="-830" as="targetPoint" />
            <Array as="points">
              <mxPoint x="1235" y="-820.39" />
              <mxPoint x="1277.31" y="-820" />
            </Array>
          </mxGeometry>
        </mxCell>
        <mxCell id="5cIpfjfdvuiY5bLcLQ52-415" value="" style="endArrow=none;html=1;rounded=0;exitX=0.5;exitY=1;exitDx=0;exitDy=0;exitPerimeter=0;entryX=0.5;entryY=1;entryDx=0;entryDy=0;" parent="1" source="5cIpfjfdvuiY5bLcLQ52-347" target="5cIpfjfdvuiY5bLcLQ52-349" edge="1">
          <mxGeometry width="50" height="50" relative="1" as="geometry">
            <mxPoint x="1336.7399999999998" y="-776.39" as="sourcePoint" />
            <mxPoint x="1402.31" y="-820" as="targetPoint" />
            <Array as="points">
              <mxPoint x="1235" y="-820.39" />
              <mxPoint x="1170.31" y="-820" />
            </Array>
          </mxGeometry>
        </mxCell>
        <mxCell id="5cIpfjfdvuiY5bLcLQ52-451" value="" style="endArrow=none;html=1;rounded=0;exitX=0.5;exitY=0;exitDx=0;exitDy=0;entryX=0.5;entryY=1;entryDx=0;entryDy=0;" parent="1" source="5cIpfjfdvuiY5bLcLQ52-533" target="5cIpfjfdvuiY5bLcLQ52-500" edge="1">
          <mxGeometry relative="1" as="geometry">
            <mxPoint x="1257.7976695296634" y="-495.68106781186526" as="sourcePoint" />
            <mxPoint x="1260.0500000000002" y="-547.4999999999999" as="targetPoint" />
          </mxGeometry>
        </mxCell>
        <mxCell id="5cIpfjfdvuiY5bLcLQ52-452" value="img_path" style="ellipse;whiteSpace=wrap;html=1;align=center;" parent="1" vertex="1">
          <mxGeometry x="1555" y="-840.0000000000002" width="65" height="20" as="geometry" />
        </mxCell>
        <mxCell id="5cIpfjfdvuiY5bLcLQ52-453" value="" style="endArrow=none;html=1;rounded=0;exitX=0;exitY=0;exitDx=0;exitDy=0;entryX=1;entryY=0.5;entryDx=0;entryDy=0;" parent="1" source="5cIpfjfdvuiY5bLcLQ52-452" target="5cIpfjfdvuiY5bLcLQ52-350" edge="1">
          <mxGeometry relative="1" as="geometry">
            <mxPoint x="1598.43" y="-972.2800000000001" as="sourcePoint" />
            <mxPoint x="1554.81" y="-860" as="targetPoint" />
          </mxGeometry>
        </mxCell>
        <mxCell id="5cIpfjfdvuiY5bLcLQ52-457" value="" style="endArrow=none;html=1;rounded=0;exitX=0.5;exitY=1;exitDx=0;exitDy=0;entryX=0;entryY=0.5;entryDx=0;entryDy=0;" parent="1" source="5cIpfjfdvuiY5bLcLQ52-217" target="5cIpfjfdvuiY5bLcLQ52-526" edge="1">
          <mxGeometry relative="1" as="geometry">
            <mxPoint x="928.6399999999999" y="-507.35999999999996" as="sourcePoint" />
            <mxPoint x="946.2599999999998" y="-558.11" as="targetPoint" />
          </mxGeometry>
        </mxCell>
        <mxCell id="5cIpfjfdvuiY5bLcLQ52-458" value="" style="endArrow=none;html=1;rounded=0;exitX=0.5;exitY=0;exitDx=0;exitDy=0;entryX=0.5;entryY=1;entryDx=0;entryDy=0;" parent="1" source="5cIpfjfdvuiY5bLcLQ52-218" target="5cIpfjfdvuiY5bLcLQ52-527" edge="1">
          <mxGeometry relative="1" as="geometry">
            <mxPoint x="885.7099999999999" y="-587.71" as="sourcePoint" />
            <mxPoint x="925.8299999999998" y="-502.5999999999998" as="targetPoint" />
          </mxGeometry>
        </mxCell>
        <mxCell id="5cIpfjfdvuiY5bLcLQ52-459" value="" style="endArrow=none;html=1;rounded=0;exitX=0.5;exitY=0;exitDx=0;exitDy=0;entryX=0;entryY=0.5;entryDx=0;entryDy=0;" parent="1" target="5cIpfjfdvuiY5bLcLQ52-532" edge="1">
          <mxGeometry relative="1" as="geometry">
            <mxPoint x="1235.12" y="-353.9699999999999" as="sourcePoint" />
            <mxPoint x="1243" y="-450" as="targetPoint" />
          </mxGeometry>
        </mxCell>
        <mxCell id="5cIpfjfdvuiY5bLcLQ52-461" value="" style="endArrow=none;html=1;rounded=0;fontFamily=Helvetica;fontSize=12;fontColor=default;autosize=0;resizable=1;exitX=0.5;exitY=0;exitDx=0;exitDy=0;entryX=0.5;entryY=1;entryDx=0;entryDy=0;" parent="1" source="5cIpfjfdvuiY5bLcLQ52-283" target="5cIpfjfdvuiY5bLcLQ52-219" edge="1">
          <mxGeometry width="50" height="50" relative="1" as="geometry">
            <mxPoint x="923.7599999999999" y="-653.7499999999999" as="sourcePoint" />
            <mxPoint x="928.6399999999999" y="-617.36" as="targetPoint" />
          </mxGeometry>
        </mxCell>
        <mxCell id="5cIpfjfdvuiY5bLcLQ52-463" value="" style="shape=link;html=1;rounded=0;exitX=0;exitY=0;exitDx=15;exitDy=0;exitPerimeter=0;entryX=0.5;entryY=0;entryDx=0;entryDy=0;" parent="1" source="5cIpfjfdvuiY5bLcLQ52-347" target="5cIpfjfdvuiY5bLcLQ52-326" edge="1">
          <mxGeometry relative="1" as="geometry">
            <mxPoint x="1290.54" y="-838.25" as="sourcePoint" />
            <mxPoint x="1290.54" y="-814.25" as="targetPoint" />
          </mxGeometry>
        </mxCell>
        <mxCell id="5cIpfjfdvuiY5bLcLQ52-464" value="" style="resizable=0;html=1;whiteSpace=wrap;align=right;verticalAlign=bottom;" parent="5cIpfjfdvuiY5bLcLQ52-463" connectable="0" vertex="1">
          <mxGeometry x="1" relative="1" as="geometry" />
        </mxCell>
        <mxCell id="5cIpfjfdvuiY5bLcLQ52-465" value="associated&amp;gt;" style="shape=rhombus;perimeter=rhombusPerimeter;whiteSpace=wrap;html=1;align=center;verticalAlign=middle;fontFamily=Helvetica;fontSize=12;fontColor=default;autosize=0;resizable=1;fillColor=none;gradientColor=none;" parent="1" vertex="1">
          <mxGeometry x="1371.8100000000002" y="-577.4999999999999" width="95" height="47.5" as="geometry" />
        </mxCell>
        <mxCell id="5cIpfjfdvuiY5bLcLQ52-466" value="" style="endArrow=none;html=1;rounded=0;exitX=0;exitY=0.5;exitDx=0;exitDy=0;entryX=1;entryY=0.75;entryDx=0;entryDy=0;" parent="1" source="5cIpfjfdvuiY5bLcLQ52-465" target="5cIpfjfdvuiY5bLcLQ52-500" edge="1">
          <mxGeometry width="50" height="50" relative="1" as="geometry">
            <mxPoint x="1642.88" y="-431.58" as="sourcePoint" />
            <mxPoint x="1570" y="-606.39" as="targetPoint" />
          </mxGeometry>
        </mxCell>
        <mxCell id="5cIpfjfdvuiY5bLcLQ52-467" value="" style="endArrow=none;html=1;rounded=0;exitX=0.5;exitY=0;exitDx=0;exitDy=0;entryX=0.5;entryY=1;entryDx=0;entryDy=0;" parent="1" source="5cIpfjfdvuiY5bLcLQ52-472" target="5cIpfjfdvuiY5bLcLQ52-469" edge="1">
          <mxGeometry relative="1" as="geometry">
            <mxPoint x="1473.9373627087791" y="-304.42543167237733" as="sourcePoint" />
            <mxPoint x="1516.05" y="-316.84999999999997" as="targetPoint" />
          </mxGeometry>
        </mxCell>
        <mxCell id="5cIpfjfdvuiY5bLcLQ52-468" value="" style="endArrow=none;html=1;rounded=0;entryX=0.75;entryY=1;entryDx=0;entryDy=0;exitX=0;exitY=0;exitDx=0;exitDy=0;" parent="1" source="5cIpfjfdvuiY5bLcLQ52-473" target="5cIpfjfdvuiY5bLcLQ52-469" edge="1">
          <mxGeometry relative="1" as="geometry">
            <mxPoint x="1468.7591770997803" y="-262.9610104240401" as="sourcePoint" />
            <mxPoint x="1546.05" y="-306.84999999999997" as="targetPoint" />
          </mxGeometry>
        </mxCell>
        <mxCell id="5cIpfjfdvuiY5bLcLQ52-469" value="Medication" style="shape=ext;margin=3;double=1;whiteSpace=wrap;html=1;align=center;" parent="1" vertex="1">
          <mxGeometry x="1499.55" y="-306.84999999999997" width="100" height="40" as="geometry" />
        </mxCell>
        <mxCell id="5cIpfjfdvuiY5bLcLQ52-470" value="&lt;span style=&quot;border-bottom: 1px dotted&quot;&gt;name&lt;/span&gt;" style="ellipse;whiteSpace=wrap;html=1;align=center;" parent="1" vertex="1">
          <mxGeometry x="1452.69" y="-256.21999999999997" width="54.81" height="28.02" as="geometry" />
        </mxCell>
        <mxCell id="5cIpfjfdvuiY5bLcLQ52-471" value="" style="endArrow=none;html=1;rounded=0;entryX=0.25;entryY=1;entryDx=0;entryDy=0;exitX=1;exitY=0;exitDx=0;exitDy=0;" parent="1" source="5cIpfjfdvuiY5bLcLQ52-470" target="5cIpfjfdvuiY5bLcLQ52-469" edge="1">
          <mxGeometry relative="1" as="geometry">
            <mxPoint x="1478.43" y="-252.82999999999998" as="sourcePoint" />
            <mxPoint x="1509.43" y="-266.83" as="targetPoint" />
          </mxGeometry>
        </mxCell>
        <mxCell id="5cIpfjfdvuiY5bLcLQ52-472" value="&lt;span style=&quot;border-bottom: 1px dotted&quot;&gt;laboratory&lt;/span&gt;" style="ellipse;whiteSpace=wrap;html=1;align=center;" parent="1" vertex="1">
          <mxGeometry x="1514.55" y="-246.39" width="70" height="30" as="geometry" />
        </mxCell>
        <mxCell id="5cIpfjfdvuiY5bLcLQ52-473" value="&lt;span style=&quot;border-bottom: 1px dotted&quot;&gt;dosage&lt;/span&gt;" style="ellipse;whiteSpace=wrap;html=1;align=center;" parent="1" vertex="1">
          <mxGeometry x="1592.5" y="-254.75" width="60.45" height="25.08" as="geometry" />
        </mxCell>
        <mxCell id="5cIpfjfdvuiY5bLcLQ52-476" value="" style="endArrow=none;html=1;rounded=0;exitX=0.5;exitY=1;exitDx=0;exitDy=0;entryX=0.25;entryY=0;entryDx=0;entryDy=0;" parent="1" source="5cIpfjfdvuiY5bLcLQ52-537" target="5cIpfjfdvuiY5bLcLQ52-383" edge="1">
          <mxGeometry relative="1" as="geometry">
            <mxPoint x="1180.81" y="-1065.0000000000002" as="sourcePoint" />
            <mxPoint x="1057.69" y="-1070" as="targetPoint" />
          </mxGeometry>
        </mxCell>
        <mxCell id="5cIpfjfdvuiY5bLcLQ52-478" value="" style="endArrow=none;html=1;rounded=0;entryX=0.5;entryY=1;entryDx=0;entryDy=0;exitX=0.25;exitY=1;exitDx=0;exitDy=0;" parent="1" source="5cIpfjfdvuiY5bLcLQ52-383" target="5cIpfjfdvuiY5bLcLQ52-538" edge="1">
          <mxGeometry relative="1" as="geometry">
            <mxPoint x="1025.06" y="-1023.61" as="sourcePoint" />
            <mxPoint x="1283.6219608409515" y="-1044.3291684528403" as="targetPoint" />
          </mxGeometry>
        </mxCell>
        <mxCell id="5cIpfjfdvuiY5bLcLQ52-492" value="&amp;lt;yields" style="shape=rhombus;double=1;perimeter=rhombusPerimeter;whiteSpace=wrap;html=1;align=center;" parent="1" vertex="1">
          <mxGeometry x="1020.44" y="-880" width="70" height="40" as="geometry" />
        </mxCell>
        <mxCell id="5cIpfjfdvuiY5bLcLQ52-496" value="name" style="ellipse;whiteSpace=wrap;html=1;align=center;fontStyle=4" parent="1" vertex="1">
          <mxGeometry x="1143.4799999999998" y="-402.46999999999986" width="51.64" height="24.4" as="geometry" />
        </mxCell>
        <mxCell id="5cIpfjfdvuiY5bLcLQ52-497" value="" style="endArrow=none;html=1;rounded=0;exitX=0.25;exitY=0;exitDx=0;exitDy=0;entryX=1;entryY=1;entryDx=0;entryDy=0;" parent="1" source="j37J7HoHjIznkent-nm3-9" target="5cIpfjfdvuiY5bLcLQ52-496" edge="1">
          <mxGeometry relative="1" as="geometry">
            <mxPoint x="1215.1650000000004" y="-353.9699999999999" as="sourcePoint" />
            <mxPoint x="1518.12" y="-342.0699999999999" as="targetPoint" />
          </mxGeometry>
        </mxCell>
        <mxCell id="5cIpfjfdvuiY5bLcLQ52-500" value="Veterinary_Visit" style="shape=ext;margin=3;double=1;whiteSpace=wrap;html=1;align=center;" parent="1" vertex="1">
          <mxGeometry x="1210.05" y="-585" width="100" height="40" as="geometry" />
        </mxCell>
        <mxCell id="5cIpfjfdvuiY5bLcLQ52-502" value="adress_line_1" style="ellipse;whiteSpace=wrap;html=1;align=center;" parent="1" vertex="1">
          <mxGeometry x="1520.45" y="-780.14" width="82.5" height="20" as="geometry" />
        </mxCell>
        <mxCell id="5cIpfjfdvuiY5bLcLQ52-503" value="" style="endArrow=none;html=1;rounded=0;entryX=0.75;entryY=0;entryDx=0;entryDy=0;exitX=0.5;exitY=1;exitDx=0;exitDy=0;" parent="1" source="5cIpfjfdvuiY5bLcLQ52-502" target="5cIpfjfdvuiY5bLcLQ52-219" edge="1">
          <mxGeometry relative="1" as="geometry">
            <mxPoint x="980" y="-666.39" as="sourcePoint" />
            <mxPoint x="836.2" y="-697.5" as="targetPoint" />
          </mxGeometry>
        </mxCell>
        <mxCell id="5cIpfjfdvuiY5bLcLQ52-504" value="adress_line_2" style="ellipse;whiteSpace=wrap;html=1;align=center;" parent="1" vertex="1">
          <mxGeometry x="1583.18" y="-760.14" width="89.55" height="20" as="geometry" />
        </mxCell>
        <mxCell id="5cIpfjfdvuiY5bLcLQ52-505" value="" style="endArrow=none;html=1;rounded=0;exitX=0;exitY=1;exitDx=0;exitDy=0;entryX=1;entryY=0.25;entryDx=0;entryDy=0;" parent="1" source="5cIpfjfdvuiY5bLcLQ52-504" target="5cIpfjfdvuiY5bLcLQ52-219" edge="1">
          <mxGeometry relative="1" as="geometry">
            <mxPoint x="800.8199999999999" y="-662.89" as="sourcePoint" />
            <mxPoint x="861.2" y="-697.5" as="targetPoint" />
          </mxGeometry>
        </mxCell>
        <mxCell id="5cIpfjfdvuiY5bLcLQ52-506" value="city" style="ellipse;whiteSpace=wrap;html=1;align=center;" parent="1" vertex="1">
          <mxGeometry x="1602.9500000000003" y="-694.9999999999999" width="50" height="20" as="geometry" />
        </mxCell>
        <mxCell id="5cIpfjfdvuiY5bLcLQ52-507" value="" style="endArrow=none;html=1;rounded=0;exitX=0;exitY=0;exitDx=0;exitDy=0;entryX=1;entryY=0.75;entryDx=0;entryDy=0;" parent="1" source="5cIpfjfdvuiY5bLcLQ52-506" target="5cIpfjfdvuiY5bLcLQ52-219" edge="1">
          <mxGeometry relative="1" as="geometry">
            <mxPoint x="820.8199999999999" y="-642.89" as="sourcePoint" />
            <mxPoint x="886.2" y="-697.5" as="targetPoint" />
          </mxGeometry>
        </mxCell>
        <mxCell id="5cIpfjfdvuiY5bLcLQ52-508" value="address_line_1" style="ellipse;whiteSpace=wrap;html=1;align=center;" parent="1" vertex="1">
          <mxGeometry x="860" y="-372.38" width="90" height="25.99" as="geometry" />
        </mxCell>
        <mxCell id="5cIpfjfdvuiY5bLcLQ52-509" value="" style="endArrow=none;html=1;rounded=0;exitX=1;exitY=0.5;exitDx=0;exitDy=0;entryX=0;entryY=0.75;entryDx=0;entryDy=0;" parent="1" source="5cIpfjfdvuiY5bLcLQ52-508" target="5cIpfjfdvuiY5bLcLQ52-218" edge="1">
          <mxGeometry relative="1" as="geometry">
            <mxPoint x="950.3300000000002" y="-362.37999999999977" as="sourcePoint" />
            <mxPoint x="933.1899999999999" y="-262.8399999999999" as="targetPoint" />
          </mxGeometry>
        </mxCell>
        <mxCell id="5cIpfjfdvuiY5bLcLQ52-510" value="address_line_2" style="ellipse;whiteSpace=wrap;html=1;align=center;" parent="1" vertex="1">
          <mxGeometry x="895.83" y="-336.39" width="89.78" height="25.99" as="geometry" />
        </mxCell>
        <mxCell id="5cIpfjfdvuiY5bLcLQ52-511" value="" style="endArrow=none;html=1;rounded=0;exitX=1;exitY=0;exitDx=0;exitDy=0;entryX=0.25;entryY=1;entryDx=0;entryDy=0;" parent="1" source="5cIpfjfdvuiY5bLcLQ52-510" target="5cIpfjfdvuiY5bLcLQ52-218" edge="1">
          <mxGeometry relative="1" as="geometry">
            <mxPoint x="897.8100000000001" y="-228.22999999999988" as="sourcePoint" />
            <mxPoint x="958.1899999999999" y="-262.8399999999999" as="targetPoint" />
          </mxGeometry>
        </mxCell>
        <mxCell id="5cIpfjfdvuiY5bLcLQ52-512" value="city" style="ellipse;whiteSpace=wrap;html=1;align=center;" parent="1" vertex="1">
          <mxGeometry x="1053.55" y="-336.39" width="50" height="20" as="geometry" />
        </mxCell>
        <mxCell id="5cIpfjfdvuiY5bLcLQ52-513" value="" style="endArrow=none;html=1;rounded=0;exitX=0;exitY=0;exitDx=0;exitDy=0;entryX=0.75;entryY=1;entryDx=0;entryDy=0;" parent="1" source="5cIpfjfdvuiY5bLcLQ52-512" target="5cIpfjfdvuiY5bLcLQ52-218" edge="1">
          <mxGeometry relative="1" as="geometry">
            <mxPoint x="917.8100000000001" y="-208.22999999999988" as="sourcePoint" />
            <mxPoint x="983.1899999999998" y="-262.8399999999999" as="targetPoint" />
          </mxGeometry>
        </mxCell>
        <mxCell id="5cIpfjfdvuiY5bLcLQ52-514" value="name" style="ellipse;whiteSpace=wrap;html=1;align=center;" parent="1" vertex="1">
          <mxGeometry x="1462.31" y="-778.1" width="50" height="20" as="geometry" />
        </mxCell>
        <mxCell id="5cIpfjfdvuiY5bLcLQ52-516" value="postcode" style="ellipse;whiteSpace=wrap;html=1;align=center;" parent="1" vertex="1">
          <mxGeometry x="1600" y="-726.39" width="57.5" height="20" as="geometry" />
        </mxCell>
        <mxCell id="5cIpfjfdvuiY5bLcLQ52-517" value="" style="endArrow=none;html=1;rounded=0;exitX=0;exitY=0.5;exitDx=0;exitDy=0;entryX=1;entryY=0.5;entryDx=0;entryDy=0;" parent="1" source="5cIpfjfdvuiY5bLcLQ52-516" target="5cIpfjfdvuiY5bLcLQ52-219" edge="1">
          <mxGeometry relative="1" as="geometry">
            <mxPoint x="880.2" y="-622.89" as="sourcePoint" />
            <mxPoint x="910.5799999999999" y="-647.5" as="targetPoint" />
          </mxGeometry>
        </mxCell>
        <mxCell id="5cIpfjfdvuiY5bLcLQ52-518" value="name" style="ellipse;whiteSpace=wrap;html=1;align=center;" parent="1" vertex="1">
          <mxGeometry x="937.4900000000002" y="-417.82" width="42.29" height="20" as="geometry" />
        </mxCell>
        <mxCell id="5cIpfjfdvuiY5bLcLQ52-519" value="" style="endArrow=none;html=1;rounded=0;exitX=1;exitY=1;exitDx=0;exitDy=0;entryX=0.25;entryY=0;entryDx=0;entryDy=0;" parent="1" source="5cIpfjfdvuiY5bLcLQ52-518" target="5cIpfjfdvuiY5bLcLQ52-218" edge="1">
          <mxGeometry relative="1" as="geometry">
            <mxPoint x="879.8100000000001" y="-270.0899999999999" as="sourcePoint" />
            <mxPoint x="935.1899999999999" y="-244.69999999999993" as="targetPoint" />
          </mxGeometry>
        </mxCell>
        <mxCell id="5cIpfjfdvuiY5bLcLQ52-520" value="postcode" style="ellipse;whiteSpace=wrap;html=1;align=center;" parent="1" vertex="1">
          <mxGeometry x="986.0700000000002" y="-326.27" width="62.62" height="19.94" as="geometry" />
        </mxCell>
        <mxCell id="5cIpfjfdvuiY5bLcLQ52-521" value="" style="endArrow=none;html=1;rounded=0;exitX=0.5;exitY=0;exitDx=0;exitDy=0;entryX=0.5;entryY=1;entryDx=0;entryDy=0;" parent="1" source="5cIpfjfdvuiY5bLcLQ52-520" target="5cIpfjfdvuiY5bLcLQ52-218" edge="1">
          <mxGeometry relative="1" as="geometry">
            <mxPoint x="929.8100000000001" y="-220.0899999999999" as="sourcePoint" />
            <mxPoint x="960.1899999999999" y="-244.69999999999993" as="targetPoint" />
          </mxGeometry>
        </mxCell>
        <mxCell id="5cIpfjfdvuiY5bLcLQ52-522" value="phone_nr" style="ellipse;whiteSpace=wrap;html=1;align=center;" parent="1" vertex="1">
          <mxGeometry x="923.64" y="-623.1" width="70" height="23.02" as="geometry" />
        </mxCell>
        <mxCell id="5cIpfjfdvuiY5bLcLQ52-523" value="" style="endArrow=none;html=1;rounded=0;exitX=1;exitY=0;exitDx=0;exitDy=0;entryX=0;entryY=0.75;entryDx=0;entryDy=0;" parent="1" source="5cIpfjfdvuiY5bLcLQ52-522" target="5cIpfjfdvuiY5bLcLQ52-217" edge="1">
          <mxGeometry relative="1" as="geometry">
            <mxPoint x="784.9" y="-617.1500000000001" as="sourcePoint" />
            <mxPoint x="674.9" y="-597.1500000000001" as="targetPoint" />
          </mxGeometry>
        </mxCell>
        <mxCell id="5cIpfjfdvuiY5bLcLQ52-526" value="gives&amp;gt;" style="shape=rhombus;perimeter=rhombusPerimeter;whiteSpace=wrap;html=1;align=center;verticalAlign=middle;fontFamily=Helvetica;fontSize=12;fontColor=default;autosize=0;resizable=1;fillColor=none;gradientColor=none;" parent="1" vertex="1">
          <mxGeometry x="1053.9399999999996" y="-599.48" width="95" height="47.5" as="geometry" />
        </mxCell>
        <mxCell id="5cIpfjfdvuiY5bLcLQ52-527" value="requests&amp;gt;" style="shape=rhombus;perimeter=rhombusPerimeter;whiteSpace=wrap;html=1;align=center;verticalAlign=middle;fontFamily=Helvetica;fontSize=12;fontColor=default;autosize=0;resizable=1;fillColor=none;gradientColor=none;" parent="1" vertex="1">
          <mxGeometry x="965.3199999999998" y="-477.5199999999999" width="95" height="47.5" as="geometry" />
        </mxCell>
        <mxCell id="5cIpfjfdvuiY5bLcLQ52-528" value="" style="html=1;rounded=0;shape=link;entryX=0;entryY=0.75;entryDx=0;entryDy=0;exitX=0;exitY=0.5;exitDx=0;exitDy=0;" parent="1" source="j37J7HoHjIznkent-nm3-28" target="5cIpfjfdvuiY5bLcLQ52-500" edge="1">
          <mxGeometry relative="1" as="geometry">
            <mxPoint x="1030" y="-466.39" as="sourcePoint" />
            <mxPoint x="1207.6199999999994" y="-574.9999999999999" as="targetPoint" />
          </mxGeometry>
        </mxCell>
        <mxCell id="5cIpfjfdvuiY5bLcLQ52-531" value="" style="whiteSpace=wrap;html=1;align=center;dashed=1;fillColor=none;" parent="1" vertex="1">
          <mxGeometry x="1363.1199999999994" y="-587.25" width="112.38" height="67" as="geometry" />
        </mxCell>
        <mxCell id="5cIpfjfdvuiY5bLcLQ52-532" value="has&amp;gt;" style="shape=rhombus;double=1;perimeter=rhombusPerimeter;whiteSpace=wrap;html=1;align=center;rotation=-90;" parent="1" vertex="1">
          <mxGeometry x="1208.66" y="-476.32" width="52.68" height="45.12" as="geometry" />
        </mxCell>
        <mxCell id="5cIpfjfdvuiY5bLcLQ52-533" value="&lt;span style=&quot;border-bottom: 1px dotted&quot;&gt;date&lt;/span&gt;" style="ellipse;whiteSpace=wrap;html=1;align=center;" parent="1" vertex="1">
          <mxGeometry x="1241.33" y="-530" width="37.45" height="20.14" as="geometry" />
        </mxCell>
        <mxCell id="5cIpfjfdvuiY5bLcLQ52-537" value="&lt;span style=&quot;border-bottom: 1px dotted&quot;&gt;indicator&lt;/span&gt;" style="ellipse;whiteSpace=wrap;html=1;align=center;" parent="1" vertex="1">
          <mxGeometry x="970.12" y="-843.2" width="62.81" height="26.39" as="geometry" />
        </mxCell>
        <mxCell id="5cIpfjfdvuiY5bLcLQ52-538" value="values" style="ellipse;whiteSpace=wrap;html=1;align=center;" parent="1" vertex="1">
          <mxGeometry x="985.6099999999999" y="-756.39" width="44.82" height="20" as="geometry" />
        </mxCell>
        <mxCell id="5cIpfjfdvuiY5bLcLQ52-540" value="" style="endArrow=none;html=1;rounded=0;exitX=0.5;exitY=0;exitDx=0;exitDy=0;entryX=1;entryY=1;entryDx=0;entryDy=0;" parent="1" source="5cIpfjfdvuiY5bLcLQ52-219" target="5cIpfjfdvuiY5bLcLQ52-514" edge="1">
          <mxGeometry relative="1" as="geometry">
            <mxPoint x="1000" y="-473.60999999999996" as="sourcePoint" />
            <mxPoint x="1160" y="-473.60999999999996" as="targetPoint" />
          </mxGeometry>
        </mxCell>
        <mxCell id="j37J7HoHjIznkent-nm3-5" value="O" style="ellipse;whiteSpace=wrap;html=1;align=center;" parent="1" vertex="1">
          <mxGeometry x="1270.9199999999998" y="-613.09" width="29.95" height="13.61" as="geometry" />
        </mxCell>
        <mxCell id="j37J7HoHjIznkent-nm3-6" value="A" style="ellipse;whiteSpace=wrap;html=1;align=center;" parent="1" vertex="1">
          <mxGeometry x="1303.24" y="-613.09" width="29.95" height="13.61" as="geometry" />
        </mxCell>
        <mxCell id="j37J7HoHjIznkent-nm3-7" value="P" style="ellipse;whiteSpace=wrap;html=1;align=center;" parent="1" vertex="1">
          <mxGeometry x="1335.81" y="-613.09" width="29.95" height="13.61" as="geometry" />
        </mxCell>
        <mxCell id="j37J7HoHjIznkent-nm3-9" value="Animal" style="whiteSpace=wrap;html=1;align=center;" parent="1" vertex="1">
          <mxGeometry x="1185" y="-366.52" width="100" height="40" as="geometry" />
        </mxCell>
        <mxCell id="j37J7HoHjIznkent-nm3-17" value="" style="endArrow=none;html=1;rounded=0;exitX=0;exitY=1;exitDx=0;exitDy=0;entryX=1;entryY=0.25;entryDx=0;entryDy=0;" parent="1" source="5cIpfjfdvuiY5bLcLQ52-221" target="5cIpfjfdvuiY5bLcLQ52-217" edge="1">
          <mxGeometry relative="1" as="geometry">
            <mxPoint x="931.26" y="-584.1" as="sourcePoint" />
            <mxPoint x="1057.26" y="-623.1" as="targetPoint" />
          </mxGeometry>
        </mxCell>
        <mxCell id="5cIpfjfdvuiY5bLcLQ52-416" value="omv" style="ellipse;whiteSpace=wrap;html=1;align=center;fontStyle=4" parent="1" vertex="1">
          <mxGeometry x="997.3800000000001" y="-607.25" width="40" height="20" as="geometry" />
        </mxCell>
        <mxCell id="j37J7HoHjIznkent-nm3-23" value="" style="html=1;rounded=0;exitX=0.5;exitY=0;exitDx=0;exitDy=0;shape=link;endWidth=3.914336704342653;entryX=0;entryY=0.5;entryDx=0;entryDy=0;" parent="1" source="5cIpfjfdvuiY5bLcLQ52-383" target="j37J7HoHjIznkent-nm3-31" edge="1">
          <mxGeometry relative="1" as="geometry">
            <mxPoint x="1055" y="-806.39" as="sourcePoint" />
            <mxPoint x="1055" y="-836.39" as="targetPoint" />
          </mxGeometry>
        </mxCell>
        <mxCell id="j37J7HoHjIznkent-nm3-26" value="" style="html=1;rounded=0;exitX=0.25;exitY=1;exitDx=0;exitDy=0;shape=link;entryX=0;entryY=0.5;entryDx=0;entryDy=0;endArrow=block;startArrow=none;startFill=0;endWidth=8.072645648403224;" parent="1" source="5cIpfjfdvuiY5bLcLQ52-500" target="j37J7HoHjIznkent-nm3-25" edge="1">
          <mxGeometry relative="1" as="geometry">
            <mxPoint x="1235" y="-545.39" as="sourcePoint" />
            <mxPoint x="1235" y="-480.39" as="targetPoint" />
          </mxGeometry>
        </mxCell>
        <mxCell id="j37J7HoHjIznkent-nm3-25" value="" style="triangle;whiteSpace=wrap;html=1;rotation=90;fillColor=#000000;" parent="1" vertex="1">
          <mxGeometry x="1233.29" y="-486.5" width="3.77" height="6.53" as="geometry" />
        </mxCell>
        <mxCell id="j37J7HoHjIznkent-nm3-27" value="" style="triangle;whiteSpace=wrap;html=1;rotation=-180;fillColor=#000000;" parent="1" vertex="1">
          <mxGeometry x="1148.94" y="-578.99" width="3.77" height="6.53" as="geometry" />
        </mxCell>
        <mxCell id="j37J7HoHjIznkent-nm3-28" value="" style="triangle;whiteSpace=wrap;html=1;rotation=-210;fillColor=#000000;" parent="1" vertex="1">
          <mxGeometry x="1013.8800000000001" y="-482.85" width="3.77" height="6.53" as="geometry" />
        </mxCell>
        <mxCell id="j37J7HoHjIznkent-nm3-30" value="" style="triangle;whiteSpace=wrap;html=1;rotation=-90;fillColor=#000000;" parent="1" vertex="1">
          <mxGeometry x="1548.1200000000001" y="-366.52" width="3.77" height="6.53" as="geometry" />
        </mxCell>
        <mxCell id="j37J7HoHjIznkent-nm3-31" value="" style="triangle;whiteSpace=wrap;html=1;rotation=-90;fillColor=#000000;" parent="1" vertex="1">
          <mxGeometry x="1053.5500000000002" y="-840" width="3.77" height="6.53" as="geometry" />
        </mxCell>
        <mxCell id="7yrZDiX7ixBo6HogLfFR-1" value="" style="shape=link;html=1;rounded=0;exitX=0;exitY=0.5;exitDx=0;exitDy=0;entryX=0.5;entryY=0;entryDx=0;entryDy=0;" parent="1" source="7yrZDiX7ixBo6HogLfFR-3" target="5cIpfjfdvuiY5bLcLQ52-293" edge="1">
          <mxGeometry relative="1" as="geometry">
            <mxPoint x="1518" y="-380.39" as="sourcePoint" />
            <mxPoint x="1480" y="-380.39" as="targetPoint" />
          </mxGeometry>
        </mxCell>
        <mxCell id="7yrZDiX7ixBo6HogLfFR-2" value="" style="resizable=0;html=1;whiteSpace=wrap;align=right;verticalAlign=bottom;" parent="7yrZDiX7ixBo6HogLfFR-1" connectable="0" vertex="1">
          <mxGeometry x="1" relative="1" as="geometry" />
        </mxCell>
        <mxCell id="7yrZDiX7ixBo6HogLfFR-3" value="" style="triangle;whiteSpace=wrap;html=1;rotation=-90;fillColor=#000000;" parent="1" vertex="1">
          <mxGeometry x="1417.42" y="-441.03" width="3.77" height="6.53" as="geometry" />
        </mxCell>
        <mxCell id="7yrZDiX7ixBo6HogLfFR-6" value="phone_nr" style="ellipse;whiteSpace=wrap;html=1;align=center;" parent="1" vertex="1">
          <mxGeometry x="1071.7" y="-376.39" width="68.3" height="24.01" as="geometry" />
        </mxCell>
        <mxCell id="7yrZDiX7ixBo6HogLfFR-7" value="" style="endArrow=none;html=1;rounded=0;exitX=0;exitY=0.5;exitDx=0;exitDy=0;entryX=1;entryY=0.75;entryDx=0;entryDy=0;" parent="1" source="7yrZDiX7ixBo6HogLfFR-6" target="5cIpfjfdvuiY5bLcLQ52-218" edge="1">
          <mxGeometry relative="1" as="geometry">
            <mxPoint x="964.9" y="-374.6700000000001" as="sourcePoint" />
            <mxPoint x="1061.7099999999998" y="-356.05999999999983" as="targetPoint" />
          </mxGeometry>
        </mxCell>
        <mxCell id="7yrZDiX7ixBo6HogLfFR-8" value="" style="html=1;rounded=0;shape=link;entryX=0.5;entryY=1;entryDx=0;entryDy=0;exitX=0;exitY=0.5;exitDx=0;exitDy=0;" parent="1" source="7yrZDiX7ixBo6HogLfFR-9" target="5cIpfjfdvuiY5bLcLQ52-326" edge="1">
          <mxGeometry relative="1" as="geometry">
            <mxPoint x="1163" y="-565.39" as="sourcePoint" />
            <mxPoint x="1220" y="-565.39" as="targetPoint" />
          </mxGeometry>
        </mxCell>
        <mxCell id="7yrZDiX7ixBo6HogLfFR-9" value="" style="triangle;whiteSpace=wrap;html=1;rotation=90;fillColor=#000000;" parent="1" vertex="1">
          <mxGeometry x="1233.29" y="-681.53" width="3.77" height="6.53" as="geometry" />
        </mxCell>
        <mxCell id="OJuQmSciOqd_kZzjWamA-1" value="(IC-1)" style="text;html=1;align=center;verticalAlign=middle;whiteSpace=wrap;rounded=0;" parent="1" vertex="1">
          <mxGeometry x="902.82" y="-602.4599999999999" width="60" height="30" as="geometry" />
        </mxCell>
        <mxCell id="OJuQmSciOqd_kZzjWamA-2" value="(IC-4)" style="text;html=1;align=center;verticalAlign=middle;whiteSpace=wrap;rounded=0;" parent="1" vertex="1">
          <mxGeometry x="1104.06" y="-311.4699999999999" width="60" height="30" as="geometry" />
        </mxCell>
        <mxCell id="OJuQmSciOqd_kZzjWamA-3" value="(IC-2)" style="text;html=1;align=center;verticalAlign=middle;whiteSpace=wrap;rounded=0;" parent="1" vertex="1">
          <mxGeometry x="1075.85" y="-400.27" width="60" height="30" as="geometry" />
        </mxCell>
        <mxCell id="OJuQmSciOqd_kZzjWamA-4" value="(IC-4)" style="text;html=1;align=center;verticalAlign=middle;whiteSpace=wrap;rounded=0;" parent="1" vertex="1">
          <mxGeometry x="1261.38" y="-521.39" width="60" height="30" as="geometry" />
        </mxCell>
        <mxCell id="OJuQmSciOqd_kZzjWamA-7" value="&lt;b&gt;&lt;font style=&quot;font-size: 15px;&quot;&gt;Integrity Constraints&lt;/font&gt;&lt;/b&gt;&lt;div&gt;&lt;span style=&quot;font-size: 9px;&quot;&gt;&lt;b&gt;&lt;br&gt;&lt;/b&gt;&lt;/span&gt;&lt;div&gt;&lt;span style=&quot;background-color: initial;&quot;&gt;(IC-1) The Doctor&#39;s phone number is unique&lt;/span&gt;&lt;div&gt;&lt;div&gt;(IC-2) The Client&#39;s phone number is unique&lt;br&gt;&lt;/div&gt;&lt;div&gt;(IC-3)&amp;nbsp;&lt;span style=&quot;background-color: initial;&quot;&gt;The Doctor&#39;s biographic description is unique&lt;/span&gt;&lt;/div&gt;&lt;div&gt;(IC-4) The Veterinary Visit&#39;s date must be greater than the birthdate of the Animal&lt;/div&gt;&lt;/div&gt;&lt;/div&gt;&lt;/div&gt;" style="text;html=1;align=left;verticalAlign=middle;whiteSpace=wrap;rounded=0;" parent="1" vertex="1">
          <mxGeometry x="863.99" y="-90" width="476.01" height="90" as="geometry" />
        </mxCell>
        <mxCell id="I5U2qBjjy3mKg3aM6Cfj-1" value="(IC-3)" style="text;html=1;align=center;verticalAlign=middle;whiteSpace=wrap;rounded=0;" vertex="1" parent="1">
          <mxGeometry x="1143.48" y="-617.25" width="60" height="30" as="geometry" />
        </mxCell>
      </root>
    </mxGraphModel>
  </diagram>
</mxfile>
